<?xml version="1.0" encoding="UTF-8"?> <!-- Generator: Adobe Illustrator 16.0.0, SVG Export Plug-In . SVG Version: 6.00 Build 0) --> <svg xmlns="http://www.w3.org/2000/svg" xmlns:xlink="http://www.w3.org/1999/xlink" id="Layer_1" x="0px" y="0px" width="286px" height="40px" viewBox="0 0 286 40" xml:space="preserve"> <g> <g> <path fill="#29465A" d="M29.291,10.255c0-2.556-2.452-4.083-5.397-4.083c-3.657,0-5.895,1.634-5.895,4.047 c0,2.556,2.416,3.764,4.296,4.368l6.746,2.167c4.897,1.562,8.379,4.403,8.379,10.042c0,4.585-3.231,11.334-13.419,11.334 c-12.818,0-13.987-8.314-13.987-11.613l7.313-0.104c0,3.903,3.088,5.397,6.674,5.397c2.484,0,6.034-1.208,6.034-4.014 c0-1.955-0.851-3.021-4.472-4.365l-8.061-2.884c-4.046-1.487-6.885-5.037-6.885-9.191c0.032-4.722,3.228-11.467,12.815-11.467 c11.36,0,13.169,7.528,13.169,10.227L29.291,10.255z"></path> <path fill="#29465A" d="M65.108,13.665c-1.101-4.793-4.329-7.206-8.518-7.206c-6.002,0-9.623,5.716-9.623,12.601 c0,7.847,3.835,12.458,9.834,12.458c3.517,0,6.924-2.3,8.239-6.489l7.561,0.533c-2.592,8.197-8.522,12.529-16.083,12.529 c-10.012,0-17.147-6.742-17.147-19.103c0-11.146,6.996-19.1,17.147-19.1c7.739,0,14.095,3.8,16.047,13.28L65.108,13.665z"></path> </g> <g> <path fill="#29465A" d="M101.995,0.99c14.699,0,19.064,9.623,19.064,18.213c0,9.191-5.716,18.635-17.466,18.635H90.6V0.99H101.995 z M94.682,34.148h8.096c9.405,0,13.845-7.418,13.845-14.982c0-7.385-3.907-14.484-14.91-14.484h-7.031V34.148z"></path> <path fill="#29465A" d="M132.812,4.682h-11.185V0.99h26.452v3.692h-11.185v33.156h-4.083V4.682z"></path> <path fill="#29465A" d="M151.697,0.99h11.718c7.527,0,12.035,4.296,12.035,11.36c0,7.278-5.293,11.289-12.64,11.289h-6.995v14.199 h-4.118V0.99z M162.245,19.878c4.723,0,8.873-1.987,8.873-7.6c0-5.358-3.553-7.632-8.555-7.632h-6.716v15.231H162.245z"></path> </g> <path fill="#29465A" d="M195.04,3.832c0-0.64-0.598-1.03-1.312-1.03c-0.987,0-1.56,0.426-1.56,1.03 c0,0.672,0.604,0.958,1.104,1.137l1.741,0.601c1.272,0.357,2.156,1.137,2.156,2.592c0,1.137-0.813,2.913-3.403,2.913 c-3.3,0-3.586-2.13-3.586-2.949l1.916-0.036c0,0.997,0.818,1.387,1.708,1.387c0.598,0,1.599-0.357,1.599-1.065 c0-0.533-0.215-0.747-1.215-1.101l-2.021-0.747c-1.064-0.39-1.74-1.276-1.74-2.377c0-1.208,0.818-2.946,3.3-2.946 c2.884,0,3.377,1.952,3.377,2.592H195.04z"></path> <path fill="#29465A" d="M201.613,10.966c-1.955,0-3.339-1.315-3.339-3.41c0-2.092,1.384-3.443,3.339-3.443s3.339,1.351,3.339,3.443 C204.952,9.651,203.568,10.966,201.613,10.966z M201.613,5.604c-0.994,0-1.422,0.818-1.422,1.952c0,1.137,0.428,1.955,1.422,1.955 c0.923,0,1.423-0.818,1.423-1.955C203.036,6.459,202.536,5.604,201.613,5.604z"></path> <path fill="#29465A" d="M210.382,9.973L210.382,9.973c-0.564,0.779-1.176,0.994-1.948,0.994c-1.526,0-2.273-0.994-2.273-2.237 V4.328h1.845v3.939c0,0.958,0.565,1.244,1.137,1.244c0.676,0,1.169-0.64,1.169-1.526V4.328h1.852v6.46h-1.78V9.973z"></path> <path fill="#29465A" d="M213.292,4.328h0.747V2.445h1.845v1.883h0.929v1.384h-0.929v3.267c0,0.282,0.104,0.425,0.571,0.425 c0.176,0,0.247,0,0.357-0.036v1.419c-0.292,0.036-0.571,0.107-0.857,0.107c-1.176,0-1.916-0.283-1.916-1.669V5.748h-0.747V4.328z"></path> <path fill="#29465A" d="M222.308,6.849c0-0.958-0.565-1.244-1.131-1.244c-0.746,0-1.175,0.604-1.175,1.526v3.657h-1.845V1.311 h1.845v3.868h0.032c0.532-0.779,1.143-0.994,1.818-0.994c1.598,0,2.339,0.994,2.339,2.237v4.365h-1.884V6.849z"></path> <path fill="#29465A" d="M235.727,4.682c-0.279-1.208-1.098-1.845-2.195-1.845c-1.494,0-2.487,1.491-2.487,3.229 c0,2.023,1.025,3.195,2.52,3.195c0.955,0,1.845-0.604,2.131-1.669l1.948,0.143c-0.708,2.095-2.195,3.231-4.15,3.231 c-2.553,0-4.437-1.741-4.437-4.9c0-2.838,1.845-4.897,4.437-4.897c1.994,0,3.618,0.994,4.15,3.442L235.727,4.682z"></path> <path fill="#29465A" d="M242.086,10.966c-1.955,0-3.339-1.315-3.339-3.41c0-2.092,1.384-3.443,3.339-3.443s3.338,1.351,3.338,3.443 C245.424,9.651,244.041,10.966,242.086,10.966z M242.086,5.604c-0.994,0-1.423,0.818-1.423,1.952c0,1.137,0.429,1.955,1.423,1.955 c0.922,0,1.422-0.818,1.422-1.955C243.508,6.459,243.008,5.604,242.086,5.604z"></path> <path fill="#29465A" d="M250.854,9.973L250.854,9.973c-0.604,0.815-1.455,0.994-2.241,0.994c-0.955,0-2.267-0.497-2.267-1.987 c0-0.711,0.246-1.848,2.767-1.988l1.669-0.107V6.599c0-0.744-0.493-1.134-1.318-1.134c-0.701,0-1.169,0.39-1.201,0.958h-1.741 c0.033-0.994,0.708-2.309,2.981-2.309c1.637,0,2.981,0.64,2.981,2.095v3.764c0,0.354,0.039,0.568,0.078,0.815h-1.708V9.973z M250.782,7.985l-1.559,0.14c-0.753,0.107-1.104,0.321-1.104,0.818c0,0.568,0.533,0.744,1.209,0.744 c0.564,0,1.454-0.318,1.454-1.101V7.985z"></path> <path fill="#29465A" d="M257.739,6.316c-0.032-0.533-0.461-0.851-1.098-0.851c-0.5,0-0.994,0.175-0.994,0.565 c0,1.136,4.086,0.143,4.086,2.77c0,0.497-0.293,2.166-2.988,2.166c-0.883,0-2.663-0.286-2.838-2.166h1.845 c0.032,0.604,0.564,0.887,1.137,0.887c0.422,0,0.993-0.14,0.993-0.672c0-1.065-3.8-0.071-3.8-2.734 c0-0.994,0.715-2.095,2.631-2.095c1.663,0,2.767,0.711,2.838,2.13H257.739z"></path> <path fill="#29465A" d="M260.506,4.328h0.825V2.445h1.767v1.883h0.929v1.384h-0.929v3.267c0,0.282,0.182,0.425,0.571,0.425 c0.176,0,0.254,0,0.357-0.036v1.419c-0.286,0.036-0.571,0.107-0.851,0.107c-1.176,0-1.845-0.283-1.845-1.669V5.748h-0.825V4.328z"></path> <path fill="#29465A" d="M193.553,14.659c3.729,0,4.937,2.449,4.937,4.65c0,2.381-1.526,4.829-4.469,4.829h-3.339v-9.479H193.553z M191.637,23.139h2.131c2.377,0,3.514-1.845,3.514-3.829c0-1.919-0.962-3.728-3.768-3.728h-1.838v7.557H191.637z"></path> <path fill="#29465A" d="M202.997,24.282c-2.273,0-3.261-1.676-3.261-3.268c0-1.705,1.13-3.375,3.261-3.375 c2.273,0,3.195,1.669,3.195,3.375C206.192,22.606,205.095,24.282,202.997,24.282z M202.997,23.392c1.384,0,2.202-0.954,2.202-2.377 c0-1.458-0.818-2.452-2.202-2.452s-2.202,0.994-2.202,2.452C200.795,22.438,201.652,23.392,202.997,23.392z"></path> <path fill="#29465A" d="M212.331,19.949c-0.104-0.497-0.533-1.387-1.702-1.387c-1.208,0-2.195,0.922-2.195,2.491 c0,1.201,0.669,2.377,2.163,2.377c1.098,0,1.591-0.714,1.734-1.461l1.064,0.175c-0.318,1.104-1.098,2.241-2.799,2.241 c-2.06,0-3.157-1.598-3.157-3.306c0-2.092,1.487-3.333,3.157-3.333c1.383,0,2.52,0.675,2.767,2.202H212.331z"></path> <path fill="#29465A" d="M214.182,17.854h1.169v-1.883h1.026v1.883h1.247v0.78h-1.247v3.868c0,0.571,0.11,0.818,0.61,0.818 c0.247,0,0.494,0,0.637-0.032v0.883c-0.318,0.033-0.675,0.033-0.954,0.033c-0.852,0-1.28-0.318-1.28-1.598v-3.972h-1.169v-0.78 H214.182z"></path> <path fill="#29465A" d="M221.528,24.282c-2.268,0-3.196-1.676-3.196-3.268c0-1.705,1.137-3.375,3.196-3.375 c2.272,0,3.267,1.669,3.267,3.375C224.795,22.606,223.658,24.282,221.528,24.282z M221.528,23.392c1.39,0,2.201-0.954,2.201-2.377 c0-1.458-0.812-2.452-2.201-2.452c-1.384,0-2.202,0.994-2.202,2.452C219.326,22.438,220.145,23.392,221.528,23.392z"></path> <path fill="#29465A" d="M226.282,17.854h1.001v1.348h0.032c0.247-0.64,0.779-1.455,1.773-1.455h0.39v1.029h-0.39 c-1.241,0-1.806,0.922-1.806,2.38v3.014h-1.033v-6.316H226.282z"></path> <path fill="#29465A" d="M234.597,23.32L234.597,23.32c-0.5,0.779-1.423,0.962-2.17,0.962c-1.455,0-2.273-0.891-2.273-1.813 c0-1.137,0.611-1.884,2.313-1.923c0.747-0.025,1.384-0.064,2.092-0.064v-0.497c0-0.819-0.318-1.494-1.637-1.494 c-1.131,0-1.56,0.497-1.663,1.208h-0.929c0.143-1.419,1.144-2.023,2.631-2.023c1.669,0,2.553,0.779,2.553,2.095v3.199 c0,0.351,0.11,0.884,0.149,1.201h-1.065V23.32z M234.597,21.157l-1.676,0.137c-1.065,0.039-1.702,0.318-1.702,1.144 c0,0.598,0.533,1.13,1.423,1.13c0.851,0,1.916-0.494,1.916-1.598v-0.813H234.597z"></path> <path fill="#29465A" d="M237.363,14.659h0.955v9.479h-0.955V14.659z"></path> <path fill="#29465A" d="M245.742,15.582h-2.845v-0.922h6.781v0.922h-2.832v8.557h-1.065v-8.557H245.742z"></path> <path fill="#29465A" d="M249.718,17.854h0.993v1.348h0.033c0.253-0.64,0.714-1.455,1.779-1.455h0.318v1.029h-0.318 c-1.247,0-1.813,0.922-1.813,2.38v3.014h-1.032v-6.316H249.718z"></path> <path fill="#29465A" d="M258.024,23.32L258.024,23.32c-0.5,0.779-1.415,0.962-2.162,0.962c-1.462,0-2.273-0.891-2.273-1.813 c0-1.137,0.598-1.884,2.306-1.923c0.747-0.025,1.384-0.064,2.098-0.064v-0.497c0-0.819-0.39-1.494-1.637-1.494 c-1.137,0-1.559,0.497-1.669,1.208h-0.994c0.215-1.419,1.208-2.023,2.702-2.023c1.663,0,2.553,0.779,2.553,2.095v3.199 c0,0.351,0.039,0.884,0.143,1.201h-1.065V23.32z M258.024,21.157l-1.669,0.137c-1.065,0.039-1.701,0.318-1.701,1.144 c0,0.598,0.532,1.13,1.422,1.13c0.851,0,1.916-0.494,1.916-1.598v-0.813H258.024z"></path> <path fill="#29465A" d="M261.331,14.659c0.383,0,0.701,0.318,0.701,0.744c0,0.429-0.318,0.783-0.701,0.783 c-0.468,0-0.786-0.354-0.786-0.783C260.545,14.978,260.902,14.659,261.331,14.659z M260.831,17.854h0.961v6.284h-0.961V17.854z"></path> <path fill="#29465A" d="M267.755,20.307c0-1.318-0.708-1.708-1.384-1.708c-0.961,0-1.812,0.711-1.812,1.987v3.553h-0.962v-6.284 h0.962v1.03h0.032c0.461-0.818,1.098-1.208,2.059-1.208c0.715,0,2.06,0.39,2.06,2.202v4.261h-0.955V20.307z"></path> <path fill="#29465A" d="M270.983,14.659c0.461,0,0.779,0.318,0.779,0.744c0,0.429-0.318,0.783-0.779,0.783 c-0.391,0-0.715-0.354-0.715-0.783C270.269,14.978,270.593,14.659,270.983,14.659z M270.45,17.854h1.026v6.284h-1.026V17.854z"></path> <path fill="#29465A" d="M277.374,20.307c0-1.318-0.643-1.708-1.39-1.708c-0.884,0-1.734,0.711-1.734,1.987v3.553h-1.032v-6.284 h1.032v1.03h0.032c0.468-0.818,1.104-1.208,1.994-1.208c0.773,0,2.131,0.39,2.131,2.202v4.261h-1.033V20.307z"></path> <path fill="#29465A" d="M284.974,17.854H286v5.713c0,1.955-0.89,3.195-3.3,3.195c-1.494,0-2.559-0.708-2.63-2.026l0.993-0.032 c0.143,0.532,0.429,1.208,1.637,1.208c1.845,0,2.234-1.176,2.234-2.592v-0.564h-0.039c-0.493,1.064-1.383,1.383-2.234,1.383 c-1.877,0-2.87-1.422-2.87-3.267c0-1.952,1.383-3.232,2.941-3.232c0.93,0,1.631,0.497,2.163,1.244h0.039v-1.03H284.974z M282.947,18.563c-1.137,0-2.026,0.747-2.026,2.276c0,1.416,0.571,2.449,1.994,2.449c0.954,0,2.059-0.786,2.059-2.449 C284.974,19.628,284.331,18.563,282.947,18.563z"></path> <path fill="#29465A" d="M190.5,28.01h3.014c1.955,0,3.099,1.026,3.099,2.871c0,1.884-1.391,2.878-3.273,2.878h-1.773v3.656H190.5 V28.01z M193.234,32.836c1.169,0,2.273-0.532,2.273-1.955c0-1.384-0.89-1.955-2.202-1.955h-1.708v3.91H193.234z"></path> <path fill="#29465A" d="M201.932,36.668L201.932,36.668c-0.493,0.715-1.423,0.955-2.169,0.955c-1.449,0-2.268-0.884-2.268-1.806 c0-1.208,0.604-1.877,2.378-1.916c0.675-0.039,1.312-0.143,2.02-0.143V33.33c0-0.813-0.318-1.521-1.624-1.521 c-1.143,0-1.5,0.494-1.676,1.241h-0.915c0.136-1.423,1.13-2.065,2.617-2.065c1.676,0,2.559,0.785,2.559,2.13v3.124 c0,0.429,0.104,0.891,0.144,1.28h-1.065V36.668z M201.932,34.499l-1.663,0.078c-1.064,0.032-1.708,0.318-1.708,1.13 c0,0.682,0.532,1.144,1.416,1.144c0.851,0,1.916-0.429,1.916-1.526v-0.825H201.932z"></path> <path fill="#29465A" d="M204.737,31.167h0.923v1.383h0.104c0.254-0.636,0.715-1.454,1.78-1.454h0.318v0.993h-0.318 c-1.319,0-1.884,0.962-1.884,2.41v3.021h-0.962v-6.353H204.737z"></path> <path fill="#29465A" d="M208.674,31.167h1.176v-1.884h1.032v1.884h1.306v0.818h-1.306v3.871c0,0.565,0.176,0.812,0.598,0.812 c0.254,0,0.5,0,0.708-0.11v0.962c-0.39,0.039-0.74,0.039-1.026,0.039c-0.851,0-1.208-0.318-1.208-1.599v-3.975h-1.24v-0.818 H208.674z"></path> <path fill="#29465A" d="M217.521,33.648c0-1.345-0.708-1.702-1.384-1.702c-0.89,0-1.74,0.676-1.74,1.994v3.475h-1.033v-6.248h1.033 v1.065h0.032c0.39-0.818,1.098-1.247,1.987-1.247c0.786,0,2.06,0.429,2.06,2.208v4.222h-0.955V33.648z"></path> <path fill="#29465A" d="M225.86,35.675c-0.532,1.176-1.494,1.948-2.942,1.948c-1.741,0-2.916-1.345-2.916-3.085 c0-2.06,1.137-3.586,2.948-3.586c1.845,0,3.014,1.137,3.014,3.307v0.279h-4.969c0,1.461,0.962,2.234,1.955,2.234 c1.137,0,1.631-0.676,1.884-1.208L225.86,35.675z M224.899,33.726c-0.104-1.143-0.813-1.812-1.917-1.812 c-1.24,0-1.806,0.961-1.883,1.812H224.899z"></path> <path fill="#29465A" d="M227.348,31.167h0.929v1.383h0.104c0.175-0.636,0.708-1.454,1.772-1.454h0.318v0.993h-0.318 c-1.312,0-1.877,0.962-1.877,2.41v3.021h-0.961v-6.353H227.348z"></path> <path fill="#29465A" d="M235.408,33.051c-0.032-0.572-0.454-1.241-1.598-1.241c-0.89,0-1.487,0.423-1.487,1.026 c0,0.604,0.422,0.89,1.663,1.065c1.637,0.279,2.526,0.637,2.526,1.773c0,0.883-0.747,1.922-2.702,1.922 c-1.981,0-2.553-1.039-2.624-2.032h0.961c0.032,0.532,0.455,1.143,1.663,1.143c1.032,0,1.702-0.318,1.702-1.032 c0-0.533-0.318-0.669-1.917-0.962c-1.233-0.214-2.272-0.669-2.272-1.877s1.064-1.955,2.637-1.955c1.416,0,2.377,0.818,2.377,2.026 h-0.929V33.051z"></path> <path fill="#29465A" d="M242.124,33.648c0-1.345-0.714-1.702-1.39-1.702c-0.883,0-1.734,0.676-1.734,1.994v3.475h-1.032V28.01H239 v4.223h0.032c0.391-0.818,1.099-1.247,1.988-1.247c0.779,0,2.059,0.429,2.059,2.208v4.222h-0.955V33.648z"></path> <path fill="#29465A" d="M245.313,28.01c0.468,0,0.786,0.318,0.786,0.708c0,0.462-0.318,0.779-0.786,0.779 c-0.39,0-0.708-0.317-0.708-0.779C244.605,28.328,244.924,28.01,245.313,28.01z M244.892,31.167h0.955v6.248h-0.955V31.167z"></path> <path fill="#29465A" d="M247.658,31.167h0.955v1.098h0.039c0.279-0.351,0.812-1.169,2.234-1.169c1.351,0,2.948,0.922,2.948,3.195 c0,1.948-1.312,3.332-3.053,3.332c-1.104,0-1.851-0.598-2.13-1.169h-0.039v3.656h-0.955V31.167z M250.711,31.946 c-1.065,0-2.098,0.715-2.098,2.377c0,1.352,0.786,2.416,2.131,2.416c1.285,0,1.993-1.098,1.993-2.448 C252.737,32.661,251.737,31.946,250.711,31.946z"></path> <path fill="#00B4C1" d="M3.8-0.111c2.101,0,3.832,1.699,3.832,3.8S5.901,7.524,3.8,7.524S0,5.79,0,3.688S1.699-0.111,3.8-0.111z"></path> <path fill="#00B4C1" d="M80.766,30.42c2.137,0,3.835,1.767,3.835,3.839c0,2.13-1.699,3.832-3.835,3.832 c-2.102,0-3.8-1.702-3.8-3.832C76.966,32.187,78.664,30.42,80.766,30.42z"></path> <path fill="#00B4C1" d="M174.918,30.42c2.13,0,3.832,1.767,3.832,3.839c0,2.13-1.702,3.832-3.832,3.832 c-2.072,0-3.761-1.702-3.761-3.832C171.157,32.187,172.846,30.42,174.918,30.42z"></path> </g> </svg> 